<svg width="24" height="24" viewBox="0 0 24 24" fill="none" xmlns="http://www.w3.org/2000/svg">
<path d="M18.75 21.1875H13.6144C14.5278 20.4046 15.3835 19.5568 16.1747 18.6506C18.7181 15.7256 20.0625 12.6506 20.0625 9.75C20.0625 7.61169 19.2131 5.56096 17.701 4.04895C16.189 2.53694 14.1383 1.6875 12 1.6875C9.86169 1.6875 7.81096 2.53694 6.29895 4.04895C4.78694 5.56096 3.9375 7.61169 3.9375 9.75C3.9375 12.6478 5.28188 15.7256 7.82531 18.6506C8.61653 19.5568 9.4722 20.4046 10.3856 21.1875H5.25C5.10082 21.1875 4.95774 21.2468 4.85225 21.3523C4.74676 21.4577 4.6875 21.6008 4.6875 21.75C4.6875 21.8992 4.74676 22.0423 4.85225 22.1477C4.95774 22.2532 5.10082 22.3125 5.25 22.3125H18.75C18.8992 22.3125 19.0423 22.2532 19.1477 22.1477C19.2532 22.0423 19.3125 21.8992 19.3125 21.75C19.3125 21.6008 19.2532 21.4577 19.1477 21.3523C19.0423 21.2468 18.8992 21.1875 18.75 21.1875ZM5.0625 9.75C5.0625 7.91006 5.79341 6.14548 7.09445 4.84445C8.39548 3.54341 10.1601 2.8125 12 2.8125C13.8399 2.8125 15.6045 3.54341 16.9056 4.84445C18.2066 6.14548 18.9375 7.91006 18.9375 9.75C18.9375 15.3394 13.4062 19.9622 12 21.0478C10.5938 19.9622 5.0625 15.3394 5.0625 9.75ZM15.5625 9.75C15.5625 9.0454 15.3536 8.35663 14.9621 7.77078C14.5707 7.18493 14.0143 6.72832 13.3633 6.45868C12.7123 6.18904 11.996 6.11849 11.305 6.25595C10.6139 6.39341 9.97916 6.73271 9.48093 7.23093C8.98271 7.72916 8.64341 8.36393 8.50595 9.05499C8.36849 9.74605 8.43904 10.4623 8.70868 11.1133C8.97832 11.7643 9.43493 12.3207 10.0208 12.7121C10.6066 13.1036 11.2954 13.3125 12 13.3125C12.9448 13.3125 13.851 12.9372 14.5191 12.2691C15.1872 11.601 15.5625 10.6948 15.5625 9.75ZM9.5625 9.75C9.5625 9.26791 9.70546 8.79664 9.97329 8.3958C10.2411 7.99495 10.6218 7.68253 11.0672 7.49804C11.5126 7.31356 12.0027 7.26528 12.4755 7.35934C12.9484 7.45339 13.3827 7.68554 13.7236 8.02643C14.0645 8.36732 14.2966 8.80164 14.3907 9.27447C14.4847 9.7473 14.4364 10.2374 14.252 10.6828C14.0675 11.1282 13.755 11.5089 13.3542 11.7767C12.9534 12.0445 12.4821 12.1875 12 12.1875C11.3535 12.1875 10.7335 11.9307 10.2764 11.4736C9.81931 11.0165 9.5625 10.3965 9.5625 9.75Z" fill="white"/>
</svg>
