<svg width="226" height="46" viewBox="0 0 226 46" fill="none" xmlns="http://www.w3.org/2000/svg">
<path d="M18.5439 3.66083C16.1537 4.87425 14.1417 6.55238 12.5005 8.69153C10.8593 10.8307 9.63668 13.3165 8.83261 16.1491C8.83261 16.1491 7.56592 16.1491 7.53655 16.1491C8.48014 12.6674 9.43842 9.11936 9.84596 5.52706C9.98548 4.30627 9.96345 3.07072 9.96345 1.84256H0.637695V44.1646H9.96345V30.6363C9.96345 29.1868 9.9965 27.7632 10.0332 26.3395C10.2058 23.9717 10.7418 21.685 11.6817 19.4906C12.8309 16.8019 14.6594 14.6037 17.1634 12.8998C19.6674 11.1958 22.8469 10.3402 26.7021 10.3402V1.83887C23.651 1.83887 20.9304 2.44742 18.5439 3.66083Z" fill="black"/>
<path d="M38.201 30.7617C39.0051 32.6427 40.2865 34.2323 42.0415 35.5305C43.7965 36.8325 46.0251 37.4816 48.7311 37.4816C51.437 37.4816 53.8382 36.803 55.5932 35.4457C57.3482 34.0885 58.659 32.2517 59.5218 29.9392H68.5868C67.6653 33.9299 65.6349 37.4705 62.4994 40.5649C59.3639 43.6593 54.8001 45.2047 48.8155 45.2047C44.0976 45.2047 40.1653 44.1203 37.0298 41.9517C33.8943 39.783 31.6032 37.0095 30.1677 33.6237C28.7284 30.2417 28.0088 26.701 28.0088 22.9981C28.0088 19.2951 28.7284 15.7581 30.1677 12.3724C31.6069 8.99031 33.8943 6.21678 37.0298 4.04813C40.169 1.88316 44.1012 0.798828 48.8192 0.798828C53.5371 0.798828 57.4804 1.89791 60.6489 4.09607C63.8138 6.29424 66.1306 9.2411 67.5992 12.944C69.0678 16.6433 69.6846 20.6929 69.457 25.0856H36.7361C36.9086 26.9924 37.397 28.8881 38.2047 30.7654L38.201 30.7617ZM42.6913 10.1226C41.0208 11.1922 39.7247 12.5494 38.8068 14.198C37.8853 15.8467 37.2795 17.5654 36.9931 19.3578L60.4764 19.4426C60.3038 17.7092 59.7567 16.0016 58.8352 14.3271C57.9136 12.6527 56.6029 11.2622 54.9066 10.1632C53.2104 9.06407 51.1506 8.51453 48.7347 8.51453C46.3188 8.51453 44.3582 9.04932 42.6913 10.1189V10.1226Z" fill="black"/>
<path d="M76.4918 15.7689C75.3976 14.6994 74.8506 13.4417 74.8506 11.9959C74.8506 10.5501 75.3976 9.20763 76.4918 8.13806C77.5859 7.06848 78.937 6.53369 80.5488 6.53369C81.4704 6.53369 82.3479 6.7808 83.1813 7.27133C84.0148 7.76186 84.6757 8.42942 85.1677 9.26664C85.656 10.1039 85.902 11.0148 85.902 11.9996C85.902 13.4454 85.3696 14.703 84.3048 15.7726C83.2401 16.8422 81.9881 17.377 80.5488 17.377C78.937 17.377 77.5859 16.8422 76.4918 15.7726V15.7689ZM76.4918 38.2669C75.3976 37.1973 74.8506 35.9397 74.8506 34.4939C74.8506 33.0481 75.3976 31.7056 76.4918 30.636C77.5859 29.5665 78.937 29.0317 80.5488 29.0317C81.4704 29.0317 82.3479 29.2788 83.1813 29.7693C84.0148 30.2598 84.6757 30.9274 85.1677 31.7646C85.656 32.6055 85.902 33.5128 85.902 34.4976C85.902 35.9433 85.3696 37.201 84.3048 38.2706C83.2401 39.3402 81.9881 39.875 80.5488 39.875C78.937 39.875 77.5859 39.3402 76.4918 38.2706V38.2669Z" fill="black"/>
<path d="M132.091 19.8776V44.1607H122.765V20.571C122.765 17.2184 122.031 14.4449 120.562 12.2467C119.093 10.0486 116.777 8.77614 113.612 8.42945C111.078 8.14177 108.905 8.48846 107.095 9.46952C105.281 10.4543 103.871 11.8705 102.865 13.7183C101.859 15.5698 101.209 17.7089 100.923 20.1358C100.692 23.5474 100.578 27.0475 100.578 30.6287V44.157H91.252V1.83865H100.578V4.00731C100.578 5.33875 100.376 6.82509 99.9756 8.47371C99.5717 10.1223 99.1128 11.6677 98.5951 13.1135H99.8911C100.754 9.93424 102.193 7.33406 104.209 5.30924C106.225 3.28442 108.567 1.94192 111.247 1.27436C113.924 0.610484 116.586 0.595731 119.233 1.2301C122.111 1.92348 124.527 3.26598 126.484 5.26498C128.441 7.2603 129.866 9.54329 130.758 12.114C131.65 14.6883 132.094 17.2737 132.094 19.8776H132.091Z" fill="black"/>
<path d="M137.429 26.1219V1.83887H146.754V25.4286C146.754 28.7811 147.489 31.5583 148.957 33.7528C150.426 35.951 152.743 37.2234 155.908 37.5701C158.496 37.8615 160.684 37.5111 162.469 36.53C164.253 35.549 165.648 34.1327 166.658 32.2812C167.664 30.4297 168.31 28.2906 168.6 25.8638C168.828 22.3932 168.945 18.8968 168.945 15.3708V1.83887H178.271V44.1609H168.945V41.9922C168.945 40.6608 169.147 39.1744 169.551 37.5258C169.955 35.8772 170.414 34.3318 170.932 32.8861H169.636C168.828 36.0653 167.422 38.6692 165.406 40.6903C163.39 42.7151 161.048 44.0576 158.368 44.7252C155.691 45.3891 153 45.4038 150.294 44.7694C147.415 44.0761 145.014 42.7299 143.083 40.7346C141.155 38.7392 139.731 36.4562 138.809 33.8856C137.888 31.3149 137.429 28.7258 137.429 26.1219Z" fill="black"/>
<path d="M193.751 30.7615C194.555 32.6425 195.836 34.2321 197.591 35.5303C199.346 36.8323 201.575 37.4814 204.281 37.4814C206.987 37.4814 209.388 36.8028 211.143 35.4455C212.898 34.0882 214.209 32.2515 215.072 29.939H224.137C223.215 33.9297 221.185 37.4703 218.049 40.5647C214.914 43.6591 210.35 45.2045 204.365 45.2045C199.647 45.2045 195.715 44.1201 192.58 41.9515C189.444 39.7828 187.153 37.0093 185.717 33.6235C184.278 30.2415 183.559 26.7008 183.559 22.9978C183.559 19.2949 184.278 15.7579 185.717 12.3722C187.157 8.99009 189.444 6.21657 192.58 4.04791C195.715 1.87925 199.644 0.794922 204.365 0.794922C209.087 0.794922 213.027 1.894 216.195 4.09217C219.36 6.29033 221.677 9.2372 223.145 12.9401C224.614 16.6394 225.231 20.689 225.003 25.0817H192.282C192.455 26.9885 192.943 28.8842 193.751 30.7615ZM198.241 10.1224C196.571 11.1919 195.275 12.5492 194.357 14.1978C193.435 15.8464 192.829 17.5651 192.543 19.3576L216.026 19.4424C215.854 17.709 215.307 16.0013 214.385 14.3269C213.463 12.6525 212.153 11.262 210.456 10.1629C208.76 9.06385 206.7 8.51431 204.285 8.51431C201.869 8.51431 199.908 9.0491 198.241 10.1187V10.1224Z" fill="black"/>
</svg>
