<svg width="21" height="25" viewBox="0 0 21 25" fill="none" xmlns="http://www.w3.org/2000/svg">
<path d="M20.6655 17.0785C20.1735 18.6755 19.3841 19.5053 18.1615 20.3278C17.3391 20.881 16.0614 21.2904 14.5193 21.8068C13.4289 22.1719 11.9676 22.9833 11.2884 23.8242C11.1488 23.9976 11.0424 24.0603 10.9139 24.0603C10.7854 24.0603 10.6752 23.9976 10.5394 23.8242C9.86011 22.987 8.39884 22.1719 7.30838 21.8068C5.76633 21.2904 4.48863 20.8847 3.66621 20.3278C2.44358 19.5053 1.65419 18.6755 1.1622 17.0785C0.703257 15.5885 0.659203 13.512 1.41921 10.366C1.49265 10.0636 1.84143 8.73212 1.88549 7.09825C1.93689 5.12507 1.4853 3.61291 1.32743 2.95641C1.19158 2.38843 1.84143 1.84258 2.34811 2.07125C3.3945 2.54702 4.45926 2.96379 5.73329 2.95641C7.52501 2.94535 9.04135 2.56178 10.7413 0.872583C10.756 0.85783 10.8404 0.765625 10.9175 0.765625C10.9946 0.765625 11.0827 0.85783 11.0938 0.872583C12.7937 2.56178 14.31 2.94535 16.1018 2.95641C17.3758 2.96748 18.4405 2.55071 19.4869 2.07125C19.9936 1.84258 20.6435 2.38843 20.5076 2.95641C20.3498 3.61291 19.8982 5.12507 19.9496 7.09825C19.9899 8.73212 20.3424 10.0636 20.4158 10.366C21.1759 13.512 21.1318 15.5885 20.6729 17.0785H20.6655Z" fill="#EF3F43"/>
<path d="M20.0632 10.4323C19.9934 10.1372 19.6152 8.84638 19.5785 7.26046C19.5198 4.88895 19.9934 3.68291 20.1513 3.04485C20.2541 2.62809 19.9016 2.29615 19.5161 2.46949C18.5064 2.93052 17.1406 3.33253 15.9143 3.32884C14.185 3.31778 12.654 2.94896 11.0201 1.3114C11.0091 1.30034 10.9724 1.25977 10.9137 1.25977C10.8549 1.25977 10.8219 1.30034 10.8072 1.3114C9.17334 2.94527 7.6423 3.31778 5.91299 3.32884C4.68669 3.33622 3.3172 2.93052 2.3112 2.46949C1.92568 2.29615 1.57322 2.62809 1.67603 3.04485C1.8339 3.68291 2.30386 4.88895 2.24879 7.26046C2.21207 8.84269 1.8339 10.1372 1.76414 10.4323C1.0335 13.4751 1.07755 15.4888 1.5218 16.9309C1.99543 18.4763 2.72242 19.2803 3.90099 20.0769C4.69404 20.6117 5.95705 20.9658 7.44403 21.46C8.49776 21.8104 10.0031 22.5849 10.653 23.4C10.7117 23.4701 10.8109 23.6508 10.921 23.6508C11.0312 23.6508 11.1303 23.4701 11.189 23.4C11.8389 22.5886 13.3442 21.8141 14.398 21.46C15.8849 20.9621 17.148 20.6117 17.941 20.0769C19.1196 19.2803 19.8502 18.4763 20.3202 16.9309C20.7644 15.4888 20.8085 13.4751 20.0779 10.4323H20.0632ZM20.0154 16.6395C19.6556 17.9673 18.9103 18.9557 17.7905 19.7155C17.0341 20.2245 15.6977 20.6043 14.2805 21.0875C12.8632 21.5706 11.6663 22.2898 11.1817 22.8468C11.1229 22.9095 10.9908 23.057 10.9137 23.1344C10.8366 23.057 10.7007 22.9131 10.6456 22.8468C10.161 22.2935 8.96406 21.5706 7.54684 21.0875C6.12962 20.608 4.79317 20.2245 4.03683 19.7155C2.91701 18.9557 2.17168 17.9636 1.81187 16.6395C1.44104 15.2491 1.4337 13.3829 2.1313 10.4802C2.19738 10.2036 2.57555 8.95334 2.61227 7.44855C2.66734 5.19138 2.28549 3.56489 2.03216 2.99322C1.95138 2.80512 2.09825 2.7498 2.28917 2.84569C2.96841 3.17763 4.61326 3.71979 6.1443 3.68291C7.89564 3.63865 9.41199 3.21082 10.921 1.70973C12.43 3.21451 13.9463 3.63865 15.6977 3.68291C17.225 3.71979 18.8699 3.17763 19.5528 2.84569C19.7437 2.75348 19.8906 2.80881 19.8098 2.99322C19.5565 3.56489 19.1747 5.19138 19.2297 7.44855C19.2665 8.95334 19.6446 10.2036 19.7107 10.4802C20.4083 13.3792 20.401 15.2491 20.0301 16.6395H20.0154Z" fill="white"/>
<path d="M5.7038 8.27502C5.72583 7.98734 5.70381 7.58902 5.71115 7.08004C5.71115 6.93989 5.72216 6.81818 5.65607 6.82187C5.54593 6.83293 5.4468 7.08373 5.40641 7.2202C5.34032 7.4378 5.29626 7.82506 5.24118 7.99472C5.19713 8.13118 5.02824 8.35616 4.97684 8.30452C4.93278 8.26395 5.14206 7.56689 5.09066 6.98046C5.07965 6.86244 5.09066 6.77761 5.09066 6.77761C5.09066 6.77761 6.5813 5.92933 6.79792 5.80762C6.81628 6.01416 6.85667 6.47887 6.89338 6.72229C6.93377 6.98046 7.1247 7.29027 7.04026 7.27921C6.67677 7.22388 6.6474 6.45674 6.37938 6.4383C6.21416 6.42723 6.25087 6.54894 6.23986 6.67803C6.22884 6.80712 6.22516 7.6259 6.22516 7.76236C6.22516 7.89882 6.22516 9.33353 6.22148 9.51794C6.21781 9.70235 6.2215 9.84988 6.44547 9.96052C6.12237 10.1449 5.70748 10.3773 5.41008 10.5506C5.52023 10.381 5.69278 10.0232 5.69645 9.79824C5.69645 9.36672 5.68178 8.5922 5.70748 8.27502" fill="white"/>
<path d="M7.4666 8.07941C7.45559 7.45979 7.4923 6.37546 7.43722 6.27957C7.37848 6.18737 7.31975 6.11729 7.1582 6.04353C7.44458 5.88125 7.88149 5.63414 8.20091 5.45342C8.09077 5.62307 8.02102 5.82592 8.01001 5.99558C7.99532 6.28326 7.9953 6.54512 7.99163 6.77748C7.99163 7.03196 8.03569 6.9582 8.33308 6.8033C8.62314 6.65208 8.69657 6.61151 8.70024 6.48242C8.70391 6.26851 8.70024 5.80011 8.70024 5.7079C8.70024 5.62307 8.64884 5.29851 8.45425 5.30589C8.6415 5.19893 9.23629 4.86699 9.43455 4.75635C9.21793 5.16574 9.25464 5.50505 9.25097 5.82961C9.24363 6.54881 9.23262 7.25325 9.23262 7.99089C9.23262 8.04622 9.26567 8.2085 9.4676 8.25644C9.19958 8.40766 8.81775 8.62526 8.55707 8.77279C8.7333 8.45929 8.69291 7.27907 8.68924 7.1758C8.68556 7.07253 8.72227 6.94345 8.52034 7.06147C8.38449 7.14261 8.19724 7.24957 8.06139 7.32702C7.98796 7.37128 7.96593 7.41922 7.9696 7.52249C7.97695 7.76223 7.98062 8.26382 7.97695 8.52199C7.97328 8.77648 7.91821 8.87975 8.23029 8.96089C7.9586 9.1121 7.51066 9.36659 7.21326 9.53625C7.48129 9.21169 7.47027 8.53675 7.46293 8.08679" fill="white"/>
<path d="M11.2957 5.52349C10.8918 5.56406 10.6422 5.82223 10.6238 5.90706C10.5981 6.03614 10.6054 6.66683 10.6091 6.8623C10.6091 7.02827 10.6568 7.10941 10.7266 7.10941C11.1415 7.13154 11.7143 6.38652 11.9419 5.81854C11.9456 6.09884 11.9346 6.66314 11.9309 6.87336C11.5968 7.06146 10.1208 7.89131 9.86012 8.03883C10.0107 7.80279 10.0988 7.44503 10.0951 7.26063C10.0951 7.07622 10.1208 6.24268 10.1098 5.73371C10.1098 5.56406 10.1098 5.25056 10.1098 5.11041C10.1098 4.97026 10.1098 4.60513 9.85645 4.5203C10.3962 4.21049 10.9432 3.90437 11.5086 3.5835C11.5417 3.84167 11.5857 4.2068 11.6151 4.44653C11.4793 4.33958 11.2406 4.17361 11.0497 4.19205C10.8514 4.21049 10.7413 4.29901 10.6495 4.47604C10.5981 4.57193 10.6275 5.32064 10.6275 5.44235C10.6275 5.44235 10.7486 5.37596 10.8037 5.31695C11.0864 5.02927 11.5784 5.0182 11.7106 5.00345C11.9345 4.97763 12.0484 4.81904 12.1218 4.67151C12.1658 4.9555 12.1805 5.01083 11.9933 5.24687C11.8685 5.40178 11.5454 5.49398 11.2994 5.5198" fill="white"/>
<path d="M3.24793 13.2836C2.99092 13.4459 2.89179 13.8774 3.10841 14.1061C3.24059 14.2462 3.67383 14.6445 4.052 15.0097C4.43018 15.3748 4.6064 15.7694 4.56968 16.3854C4.53297 17.0013 3.89412 17.5472 3.44986 17.5545C2.54299 17.5693 2.33738 17.0345 2.32637 16.7247C2.31903 16.4149 2.51731 16.0424 2.86977 16.0129C3.23693 15.9834 3.33973 16.3153 3.32137 16.4444C3.0974 16.3927 2.89547 16.4591 2.88813 16.6767C2.87344 16.9681 3.15981 17.0677 3.38378 17.0419C3.96756 16.9829 4.25394 16.2969 3.8721 15.751C3.57838 15.3306 2.39247 14.7589 2.45489 13.8626C2.50262 13.1988 2.99826 12.8226 3.33237 12.7746C4.00794 12.6787 4.1181 12.9959 4.24293 12.9C4.30168 12.8558 4.40448 12.8004 4.51462 12.7968C4.62477 12.7931 4.6578 12.7968 4.68718 12.8484C4.36408 13.2098 4.37878 13.8737 4.61009 14.32C4.49994 14.4638 4.26863 14.2573 4.14379 14.0434C4.01896 14.0286 3.98592 14.0065 3.91248 13.9733C4.0263 13.7778 4.04099 13.634 3.93819 13.4422C3.82437 13.2393 3.46823 13.1435 3.24793 13.2799" fill="white"/>
<path d="M4.85987 16.2525C4.78644 16.614 4.72769 16.673 4.66895 16.7799C4.92228 16.6287 5.28576 16.4296 5.56113 16.2747C5.50606 16.2747 5.35919 16.2083 5.32982 16.0681C5.29311 15.8911 5.40693 15.1645 5.47302 15.1202C5.53911 15.076 5.99438 14.8178 6.04945 14.7809C6.10453 14.7477 6.15227 14.9985 6.19633 15.2235C6.24406 15.4485 6.21834 15.6956 6.02008 16.0202C6.29177 15.8616 6.83517 15.5628 6.97469 15.4743C6.73971 15.4522 6.6773 14.8879 6.62957 14.7219C6.58551 14.5596 6.02376 12.4168 6.0054 12.2361C5.98704 12.0554 5.99806 11.8673 6.05313 11.7529C5.94298 11.8119 5.83282 11.8746 5.74103 12.0664C5.6162 12.3357 5.56849 12.6934 5.53177 12.8815C5.49139 13.0696 4.89659 16.0792 4.85987 16.2525ZM5.76306 13.3093C5.76306 13.3093 6.06415 14.3752 6.00907 14.4011C5.92463 14.4379 5.60153 14.6223 5.55013 14.6482C5.49873 14.674 5.75941 13.3093 5.75941 13.3093" fill="white"/>
<path d="M7.74519 11.6901C7.74887 12.3982 7.72317 14.2276 7.72684 14.3751C7.73051 14.5226 7.70848 14.6628 7.74887 14.6738C7.87003 14.707 8.01689 14.5042 8.13805 14.3751C8.25922 14.246 8.19679 13.4826 8.68144 13.3719C8.60801 13.5858 8.56396 13.8883 8.55294 13.9878C8.54193 14.0874 8.5713 14.5669 8.5713 14.5669C8.5713 14.5669 7.44045 15.2086 7.11735 15.393C7.2275 15.1349 7.19814 14.8509 7.20181 14.6148C7.22384 13.6854 7.21281 12.8334 7.23484 11.845C7.24219 11.5463 7.02925 11.4836 6.95215 11.443C7.20181 11.3028 7.81494 10.9525 7.89572 10.9082C7.79292 11.0815 7.74152 11.2401 7.74519 11.6864" fill="white"/>
<path d="M8.4142 11.1551C8.37382 10.9928 8.24897 10.8674 8.08008 10.8158C8.36279 10.6498 8.79237 10.4138 9.07875 10.2478C8.99798 10.4101 8.89884 10.8379 8.95759 11.0482C9.00164 11.2068 9.30639 12.5898 9.30639 12.5898C9.30639 12.5898 9.64051 10.6019 9.66254 10.4507C9.68457 10.3032 9.71394 10.1888 9.44958 10.0413C9.66621 9.91589 10.1876 9.62453 10.4299 9.48438C10.3748 9.59871 10.2353 9.84951 10.1839 10.0819C10.1325 10.3142 9.43857 13.7664 9.42756 13.8438C9.41654 13.9213 9.38716 14.3048 9.09343 14.4487C9.16319 14.1979 9.15585 14.1794 9.11914 13.9877C9.08242 13.7959 8.53169 11.6493 8.4142 11.1588" fill="white"/>
<path d="M10.0437 13.3018C9.97029 13.6633 9.80874 13.796 9.75 13.903C10.0033 13.7518 10.5687 13.4383 10.8404 13.2834C10.7854 13.2834 10.5577 13.2354 10.5284 13.0916C10.4917 12.9146 10.6055 12.2175 10.6716 12.1732C10.7377 12.129 11.1525 11.8819 11.2076 11.8487C11.2627 11.8155 11.3104 12.0663 11.3545 12.2913C11.3985 12.5162 11.3765 12.7633 11.1782 13.0916C11.4499 12.933 11.9933 12.6343 12.1328 12.5457C11.8979 12.5199 11.8354 11.9593 11.7877 11.7934C11.7437 11.6311 11.248 9.47717 11.2296 9.29276C11.2113 9.11204 11.2113 8.86124 11.2296 8.73584C11.1195 8.79485 10.9983 8.94607 10.9543 9.15629C10.8882 9.46979 10.8074 9.84599 10.7707 10.0341C10.7303 10.2222 10.0768 13.1285 10.0437 13.3018ZM10.9836 10.5947C10.9836 10.5947 11.2223 11.4467 11.1672 11.4725C11.0828 11.5094 10.8294 11.668 10.778 11.6901C10.7266 11.7159 10.9836 10.5947 10.9836 10.5947Z" fill="white"/>
<path d="M12.427 9.38116C12.4233 9.15618 12.427 8.77629 12.3902 8.73941C12.3462 8.75048 12.0818 8.85006 12.0194 9.12298C11.9497 9.44386 12.0011 9.70203 11.6816 9.96389C11.7477 9.55081 11.722 9.10454 11.6816 8.77998C11.924 8.63614 13.2751 7.88006 13.488 7.75098C13.4623 8.212 13.4697 8.81318 13.5101 9.25945C13.4366 9.23363 13.242 9.01234 13.2274 8.92751C13.2127 8.85375 13.2163 8.48124 13.0107 8.43329C12.9153 8.41116 12.919 8.55869 12.919 8.62877C12.919 8.69884 12.9043 9.60245 12.9079 9.68359C12.9116 9.76473 12.8932 11.5646 12.8932 11.642C12.8932 11.7232 12.9557 11.926 13.1503 11.985C12.9447 12.0994 12.4453 12.376 12.225 12.4977C12.4306 12.1879 12.3902 11.8301 12.4013 11.6088C12.4159 11.299 12.4306 10.1151 12.4196 9.38485" fill="white"/>
<path d="M14.354 7.70683C14.343 8.22686 14.3283 10.6426 14.3283 10.7975C14.3283 10.9967 14.4531 11.1516 14.5853 11.17C14.3503 11.3065 13.8547 11.5905 13.5977 11.7306C13.7041 11.5204 13.829 11.1405 13.829 10.8123C13.8216 10.0009 13.8694 8.7469 13.8547 7.97238C13.8547 7.91706 13.7702 7.65888 13.6601 7.65888C13.8987 7.52242 14.2659 7.31588 14.5009 7.18311C14.4311 7.3085 14.365 7.41915 14.3613 7.70314" fill="white"/>
<path d="M14.9932 10.4914C15.3788 10.9819 15.9992 10.6205 16.2746 10.0931C16.5316 9.60624 16.6014 8.75795 16.6197 7.89123C16.6381 7.0245 16.2342 6.63724 15.9479 6.53029C15.6615 6.42333 15.2723 6.6815 15.1107 6.91017C14.9455 7.13884 14.7252 7.54085 14.6555 8.10883C14.5563 8.89811 14.6004 9.98981 14.9932 10.4914ZM16.0543 7.5261C16.047 7.82853 16.0947 9.31856 15.8377 9.9935C15.6468 10.5025 15.2943 10.2775 15.2245 9.88285C15.1328 9.34438 15.1915 7.95762 15.3604 7.37488C15.533 6.77739 16.0653 6.85853 16.0543 7.5261Z" fill="white"/>
<path d="M16.8766 6.62986C16.8693 6.29423 16.7628 6.26104 16.5352 6.04344C16.6049 5.99549 17.0932 5.72256 17.2511 5.63405C17.3686 5.8664 17.7394 6.83271 17.912 7.06138C18.0185 6.44545 18.0589 5.85903 18.0772 5.2431C18.0809 5.09188 17.8606 4.91485 17.7468 4.86321C17.8092 4.66774 18.3746 4.33949 18.4848 4.9923C18.5362 5.30948 18.158 7.66255 18.3783 8.63255C18.4444 8.93498 18.5472 9.10464 18.6463 9.27798C18.5912 9.3333 18.4407 9.33699 18.2681 9.27798C18.0956 9.21897 17.9817 8.9903 17.9267 8.82433C17.7247 8.23053 17.4677 7.72894 17.2364 7.22735C17.2144 7.64411 17.2181 7.82483 17.2107 8.04981C17.196 8.53665 17.2071 8.79483 17.2254 9.24479C17.2328 9.39969 17.4347 9.50296 17.5559 9.50665C17.3356 9.62467 16.9133 9.86809 16.6784 10.0046C16.7922 9.79433 16.8509 9.56935 16.8656 9.1784C16.8876 8.38913 16.895 7.42651 16.884 6.63723" fill="white"/>
<path d="M8.96129 18.5021C9.01269 18.4763 9.44961 18.2218 9.53405 18.1849C9.58913 18.1591 9.24033 16.8387 9.24033 16.8387C9.24033 16.8387 8.90989 18.5279 8.96129 18.5021ZM8.998 16.4072C9.03838 16.2007 9.06778 15.8724 9.20363 15.5811C9.29909 15.3708 9.45327 15.2639 9.57443 15.2012C9.51569 15.3266 9.53037 15.4114 9.54873 15.6106C9.56709 15.8097 10.1068 18.2144 10.1545 18.3915C10.2023 18.5685 10.3014 19.2139 10.5548 19.2397C10.4006 19.3393 10.0187 19.5348 9.72498 19.7081C9.8131 19.3283 9.76536 19.1955 9.71763 18.9484C9.66623 18.705 9.62953 18.5501 9.57078 18.5869C9.51204 18.6238 8.93558 18.9484 8.86215 18.9963C8.79239 19.0443 8.66756 19.7045 8.70428 19.8999C8.73365 20.0548 8.8952 20.1507 8.95762 20.147C8.66022 20.3167 8.3408 20.479 8.06543 20.6449C8.12785 20.5269 8.19394 20.4495 8.27471 20.0548C8.31143 19.8667 8.95394 16.6138 8.998 16.4072Z" fill="white"/>
<path d="M11.2993 16.7358C11.2993 16.828 11.6444 16.8095 11.8206 16.6288C11.9565 16.485 12.118 15.7769 12.0483 15.5371C11.8794 14.9618 11.314 15.1277 11.3029 15.2605C11.2919 15.3933 11.2919 16.2858 11.3029 16.7358M11.9455 17.0087C11.9161 17.1857 12.0593 17.7906 12.2355 18.1225C12.4668 18.5098 12.7606 18.7422 13.2746 18.5762C13.1351 19.1552 12.4925 19.0188 12.2245 18.8307C11.6114 18.3992 11.3507 17.407 11.325 17.0714C11.2919 17.1894 11.2846 17.9935 11.2919 18.4434C11.2919 18.4987 11.3433 18.6758 11.5343 18.6868C11.4241 18.7459 10.7779 19.111 10.6347 19.1995C10.6678 19.1516 10.7265 19.0077 10.7302 18.7569C10.7375 17.975 10.7375 16.4776 10.7559 15.5371C10.7559 15.4154 10.5356 15.2162 10.4658 15.1867C10.7522 14.9655 11.1634 14.7995 11.5012 14.6962C11.839 14.5929 12.2135 14.7147 12.4191 15.0208C12.8303 15.633 12.4852 16.4813 11.9491 17.0013" fill="white"/>
<path d="M15.0667 13.7076C15.0521 14.1982 15.0557 15.4079 15.0667 16.0754C15.0667 16.3594 15.1071 16.3963 15.3458 16.5402C15.0117 16.7135 14.6188 16.9348 14.27 17.1487C14.4132 16.909 14.4977 16.5955 14.4977 16.4885C14.4866 15.998 14.5123 15.1128 14.472 14.6629C14.3104 15.0575 14.0093 16.0275 14.0093 16.0275C14.0093 16.0275 13.5981 15.312 13.3668 14.9801C13.3264 15.6734 13.3338 16.9717 13.3411 17.1303C13.3485 17.2889 13.4659 17.3848 13.6605 17.4917C13.3888 17.6466 12.9483 17.8937 12.6986 18.0265C12.7426 17.8974 12.9189 17.6614 12.9189 17.477C12.9189 17.145 12.9409 14.792 12.9409 14.578C12.9409 14.3604 12.9483 14.1502 12.6582 14.0174C12.7683 13.9584 13.1649 13.7224 13.2603 13.6744C13.5577 14.1834 13.8111 14.6592 13.9506 14.862C14.1452 14.2203 14.3031 13.7113 14.538 12.9589C14.6776 12.8667 15.0264 12.6676 15.2503 12.5532C15.0117 13.088 15.0925 13.0364 15.0741 13.7113" fill="white"/>
<path d="M15.7642 12.6344C15.7017 12.5127 15.5916 12.4131 15.4814 12.4131C15.7201 12.284 16.1386 12.0443 16.414 11.8894C16.3589 11.9447 16.2892 12.2287 16.3075 12.3135C16.3259 12.3983 16.7188 13.3905 16.7665 13.4605C16.8913 13.2835 17.2291 12.5754 17.4384 12.0148C17.5742 11.6459 17.3943 11.1038 17.119 11.1112C17.2254 10.8272 17.6697 10.8788 17.7835 11.0485C18.0112 11.3841 17.923 11.8488 17.8019 12.177C17.6807 12.5053 17.2475 13.4421 17.0088 13.94C16.9978 13.9621 16.9758 15.0723 16.9794 15.1719C16.9831 15.2714 17.1153 15.4448 17.2438 15.4669C16.9537 15.6292 16.4581 15.9095 16.1533 16.0792C16.3369 15.762 16.403 15.596 16.3993 15.2161C16.3957 14.9432 16.4103 14.1613 16.3957 14.1318C16.2708 13.8626 15.8229 12.7635 15.7605 12.6418" fill="white"/>
</svg>
